# File created by Blade
# Date/Time:  Tue Jan 27 19:00:46 2015
#---------------------------------------------------------
:version 1.10
:name HOM
:units
  mass 1.0
  length 1.000000
  angle deg
:documentation
     Acclaim Skeleton File
:root
   axis xyz
   order TX TY TZ RX RY RZ
   position 0.000000 0.000000 0.000000
   orientation 0 0 0
:bonedata
   begin
      id 1
      name Spine_dum
      direction 0.000000 1.000000 0.000000
      length 5.195262
      axis 0.0 0.0 0.0 xyz
   end
   begin
      id 2
      name LeftUpLeg_dum
      direction 1.000000 0.000000 0.000000
      length 3.351363
      axis 0.0 0.0 0.0 xyz
   end
   begin
      id 3
      name RightUpLeg_dum
      direction -1.000000 0.000000 0.000000
      length 3.351363
      axis 0.0 0.0 0.0 xyz
   end
   begin
      id 4
      name Spine
      direction 0.000000 1.000000 0.000000
      length 0.000000
      axis 0.0 0.0 0.0 xyz
      dof rx ry rz
   end
   begin
      id 5
      name Spine_dum1
      direction 0.000000 1.000000 0.000000
      length 15.653875
      axis 0.0 0.0 0.0 xyz
   end
   begin
      id 6
      name Spine_dum2
      direction 0.000000 1.000000 0.000000
      length 10.329768
      axis 0.0 0.0 0.0 xyz
   end
   begin
      id 7
      name Spine_dum3
      direction 0.000000 1.000000 0.000000
      length 10.329768
      axis 0.0 0.0 0.0 xyz
   end
   begin
      id 8
      name Head
      direction 0.000000 1.000000 0.000000
      length 4.527550
      axis 0.0 0.0 0.0 xyz
      dof rx ry rz
   end
   begin
      id 9
      name LeftShoulder
      direction 1.000000 0.000000 0.000000
      length 6.996006
      axis 0.0 0.0 -90.0 xyz
      dof rx ry rz
   end
   begin
      id 10
      name LeftArm
      direction 1.000000 0.000000 0.000000
      length 10.209302
      axis 0.0 0.0 -90.0 xyz
      dof rx ry rz
   end
   begin
      id 11
      name LeftForeArm
      direction 1.000000 0.000000 0.000000
      length 8.563163
      axis 0.0 0.0 -90.0 xyz
      dof ry rz rx
   end
   begin
      id 12
      name LeftHand
      direction 0.000000 0.000000 0.000000
      length 0.000000
      axis 0.0 0.0 -90.0 xyz
      dof rx ry rz
   end
   begin
      id 13
      name LeftHand_dum1
      direction 0.000000 0.000000 0.000000
      length 0.000000
      axis 0.0 0.0 -90.0 xyz
   end
   begin
      id 14
      name LeftHand_dum2
      direction 1.000000 0.000000 0.000000
      length 3.937000
      axis 0.0 0.0 -90.0 xyz
   end
   begin
      id 15
      name LeftHandThumb1
      direction 0.000000 0.000000 1.000000
      length 3.937000
      axis 0.0 0.0 -90.0 xyz
      dof rx rz ry
   end
   begin
      id 16
      name RightShoulder
      direction -1.000000 0.000000 0.000000
      length 6.996006
      axis 0.0 0.0 90.0 xyz
      dof rx ry rz
   end
   begin
      id 17
      name RightArm
      direction -1.000000 0.000000 0.000000
      length 10.209302
      axis 0.0 0.0 90.0 xyz
      dof rx ry rz
   end
   begin
      id 18
      name RightForeArm
      direction -1.000000 0.000000 0.000000
      length 8.563163
      axis 0.0 0.0 90.0 xyz
      dof ry rz rx
   end
   begin
      id 19
      name RightHand
      direction 0.000000 0.000000 0.000000
      length 0.000000
      axis 0.0 0.0 90.0 xyz
      dof rx ry rz
   end
   begin
      id 20
      name RightHand_dum1
      direction 0.000000 0.000000 0.000000
      length 0.000000
      axis 0.0 0.0 90.0 xyz
   end
   begin
      id 21
      name RightHand_dum2
      direction -1.000000 0.000000 0.000000
      length 3.937000
      axis 0.0 0.0 90.0 xyz
   end
   begin
      id 22
      name RightHandThumb1
      direction 0.000000 0.000000 1.000000
      length 3.937000
      axis 0.0 0.0 90.0 xyz
      dof rx rz ry
   end
   begin
      id 23
      name LeftUpLeg
      direction 0.000000 -1.000000 0.000000
      length 16.346831
      axis 0.0 0.0 0.0 xyz
      dof rx ry rz
   end
   begin
      id 24
      name LeftLeg
      direction 0.000000 -1.000000 0.000000
      length 13.959795
      axis 0.0 0.0 0.0 xyz
      dof rx ry rz
   end
   begin
      id 25
      name LeftFoot
      direction 0.000000 -0.258819 0.965926
      length 5.165550
      axis 15.0 0.0 0.0 xyz
      dof rx ry rz
   end
   begin
      id 26
      name LeftToeBase
      direction 0.000000 0.000000 1.000000
      length 2.952750
      axis 0.0 0.0 0.0 xyz
      dof rx ry rz
   end
   begin
      id 27
      name RightUpLeg
      direction 0.000000 -1.000000 0.000000
      length 16.346831
      axis 0.0 0.0 0.0 xyz
      dof rx ry rz
   end
   begin
      id 28
      name RightLeg
      direction 0.000000 -1.000000 0.000000
      length 13.959795
      axis 0.0 0.0 0.0 xyz
      dof rx ry rz
   end
   begin
      id 29
      name RightFoot
      direction 0.000000 -0.258819 0.965926
      length 5.165550
      axis 15.0 0.0 0.0 xyz
      dof rx ry rz
   end
   begin
      id 30
      name RightToeBase
      direction 0.000000 0.000000 1.000000
      length 2.952750
      axis 0.0 0.0 0.0 xyz
      dof rx ry rz
   end
:hierarchy
   begin
      root Spine_dum LeftUpLeg_dum RightUpLeg_dum
      Spine_dum Spine
      LeftUpLeg_dum LeftUpLeg
      RightUpLeg_dum RightUpLeg
      Spine Spine_dum1 Spine_dum2 Spine_dum3
      Spine_dum1 Head
      Spine_dum2 LeftShoulder
      Spine_dum3 RightShoulder
      LeftShoulder LeftArm
      LeftArm LeftForeArm
      LeftForeArm LeftHand
      LeftHand LeftHand_dum1 LeftHand_dum2
      LeftHand_dum1 LeftHandThumb1
      RightShoulder RightArm
      RightArm RightForeArm
      RightForeArm RightHand
      RightHand RightHand_dum1 RightHand_dum2
      RightHand_dum1 RightHandThumb1
      LeftUpLeg LeftLeg
      LeftLeg LeftFoot
      LeftFoot LeftToeBase
      RightUpLeg RightLeg
      RightLeg RightFoot
      RightFoot RightToeBase
   end

# File created by Blade
# Date/Time:  Tue Jan 27 19:00:36 2015
# Frame Rate: 120.000 fps
#------------------------------------------------------
:FULLY-SPECIFIED
:DEGREES
267
root -2.682952 31.665307 -5.433707 3.231059 8.554718 0.170428
Spine 2.748551 -7.370036 -0.572004
Head 9.512785 3.840681 2.481342
LeftShoulder -16.667250 17.083720 16.339330
LeftArm 4.620883 -46.502351 -64.787037
LeftForeArm -20.835713 -0.000000 59.100622
LeftHand -7.373312 0.000000 24.523112
LeftHandThumb1 -26.253704 0.000000 33.147579
RightShoulder -13.551741 -3.695882 -10.105867
RightArm 5.920395 -28.624840 87.856617
RightForeArm -21.962480 -0.000000 20.845446
RightHand -15.054972 -0.000000 8.996230
RightHandThumb1 -24.326973 -0.000000 -32.862282
LeftUpLeg -5.712174 -2.213939 -8.054336
LeftLeg 14.000022 -0.000000 -0.000000
LeftFoot -24.490036 22.384599 -17.083210
LeftToeBase 9.871490 -0.000000 -0.000000
RightUpLeg -33.692974 -1.175458 -7.408055
RightLeg 83.397312 -0.000000 -0.000000
RightFoot -22.774165 -15.058616 13.943617
RightToeBase 0.999095 -0.000000 -0.000000
268
root -2.678640 31.661898 -5.418448 3.173273 8.523941 0.174087
Spine 2.749840 -7.397129 -0.597132
Head 9.291017 3.974103 2.464099
LeftShoulder -16.740631 17.252086 16.213461
LeftArm 4.606695 -46.405889 -64.730943
LeftForeArm -20.833192 -0.000000 59.500420
LeftHand -7.558314 -0.000000 24.565652
LeftHandThumb1 -26.253704 0.000000 33.147579
RightShoulder -13.551982 -3.668153 -10.181626
RightArm 6.031990 -29.043727 87.755061
RightForeArm -21.957070 -0.000000 20.551832
RightHand -15.119982 -0.000000 8.865431
RightHandThumb1 -24.326973 -0.000000 -32.862282
LeftUpLeg -5.617448 -2.284260 -8.077538
LeftLeg 13.984226 -0.000000 -0.000000
LeftFoot -24.522280 22.528171 -17.014990
LeftToeBase 9.748733 -0.000000 -0.000000
RightUpLeg -33.671140 -0.853022 -7.478215
RightLeg 83.661627 -0.000000 -0.000000
RightFoot -22.778581 -15.060446 13.948863
RightToeBase 0.813862 -0.000000 -0.000000
269
root -2.677201 31.659071 -5.400909 3.113372 8.492906 0.163916
Spine 2.744117 -7.419373 -0.613153
Head 9.094968 4.036748 2.469567
LeftShoulder -16.833590 17.345520 16.085006
LeftArm 4.588525 -46.344405 -64.674352
LeftForeArm -20.748370 -0.000000 59.898724
LeftHand -7.696614 -0.000000 24.479056
LeftHandThumb1 -26.253704 0.000000 33.147579
RightShoulder -13.552367 -3.667924 -10.232949
RightArm 6.140083 -29.312698 87.649566
RightForeArm -22.156187 -0.000000 20.301277
RightHand -15.217030 -0.000000 9.044113
RightHandThumb1 -24.326973 -0.000000 -32.862282
LeftUpLeg -5.514490 -2.406086 -8.087438
LeftLeg 13.953539 -0.000000 -0.000000
LeftFoot -24.610913 22.729510 -17.019694
LeftToeBase 9.730931 -0.000000 -0.000000
RightUpLeg -33.625300 -0.486263 -7.528648
RightLeg 83.948403 -0.000000 -0.000000
RightFoot -22.796984 -15.079587 13.994012
RightToeBase 0.790506 -0.000000 -0.000000
270
root -2.675444 31.655895 -5.383447 3.059290 8.468349 0.159684
Spine 2.722538 -7.435206 -0.629001
Head 8.935665 4.073964 2.470983
LeftShoulder -16.927693 17.493960 15.920727
LeftArm 4.568782 -46.181657 -64.596413
LeftForeArm -20.746607 -0.000000 60.387910
LeftHand -7.824378 -0.000000 24.629284
LeftHandThumb1 -26.253704 0.000000 33.147579
RightShoulder -13.561448 -3.671607 -10.296371
RightArm 6.251666 -29.593276 87.565958
RightForeArm -22.102952 -0.000000 19.994156
RightHand -15.165215 -0.000000 9.121163
RightHandThumb1 -24.326973 -0.000000 -32.862282
LeftUpLeg -5.425591 -2.546278 -8.098534
LeftLeg 13.941841 -0.000000 -0.000000
LeftFoot -24.667787 22.921316 -16.978219
LeftToeBase 9.725057 -0.000000 -0.000000
RightUpLeg -33.569253 -0.103021 -7.588507
RightLeg 84.276509 -0.000000 -0.000000
RightFoot -22.846593 -15.024323 14.134511
RightToeBase 0.909303 -0.000000 -0.000000
271
root -2.675534 31.652280 -5.364400 2.996255 8.444170 0.143624
Spine 2.692275 -7.441646 -0.646144
Head 8.827946 4.135299 2.479634
LeftShoulder -16.987317 17.626324 15.772259
LeftArm 4.525895 -46.076509 -64.512977
LeftForeArm -20.716756 -0.000000 60.902219
LeftHand -7.938480 0.000000 24.621168
LeftHandThumb1 -26.253704 0.000000 33.147579
RightShoulder -13.564090 -3.697907 -10.351100
RightArm 6.370634 -29.787619 87.492552
RightForeArm -22.051204 -0.000000 19.687006
RightHand -15.174278 -0.000000 9.326536
RightHandThumb1 -24.326973 -0.000000 -32.862282
LeftUpLeg -5.325396 -2.745124 -8.097627
LeftLeg 13.935475 -0.000000 -0.000000
LeftFoot -24.739121 23.183035 -16.900447
LeftToeBase 9.654524 -0.000000 -0.000000
RightUpLeg -33.494056 0.324592 -7.622335
RightLeg 84.628753 -0.000000 -0.000000
RightFoot -22.946041 -14.989349 14.355118
RightToeBase 1.030364 -0.000000 -0.000000
